<svg width="24" height="24" viewBox="0 0 24 24" fill="none" xmlns="http://www.w3.org/2000/svg"><g clip-path="url(#clip0)"><path d="M19.5 12.5c.944 0 1.858.34 2.58.961a4.108 4.108 0 011.365 2.435c.16.95-.015 1.928-.492 2.76a4.021 4.021 0 01-2.119 1.785.98.98 0 01-.911-.128 1.04 1.04 0 01-.423-.835V12.5zm-15 0c-.944 0-1.858.34-2.58.961a4.108 4.108 0 00-1.365 2.435 4.16 4.16 0 00.493 2.76 4.021 4.021 0 002.118 1.785.98.98 0 00.911-.128 1.04 1.04 0 00.423-.835V12.5z" stroke="#4E4D47" stroke-linecap="round" stroke-linejoin="round"/><path d="M19.5 13.5v-2a7.5 7.5 0 00-15 0v2" stroke="#4E4D47" stroke-linecap="round" stroke-linejoin="round"/><path d="M9.681 17.135c-.237.144-.431.04-.431-.232l.001-6.606c0-.272.194-.376.432-.232l5.389 3.274c.237.144.237.38 0 .524l-5.39 3.272z" fill="#4E4D47"/></g><defs><clipPath id="clip0"><path fill="#fff" d="M0 0h24v24H0z"/></clipPath></defs></svg>